<?xml version="1.0" encoding="UTF-8" standalone="no"?>
<svg
   version="1.1"
   width="767.99988pt"
   height="576pt"
   id="svg18"
   viewBox="0 0 767.99988 576"
   sodipodi:docname="Arkline Logo.cdr"
   xmlns:inkscape="http://www.inkscape.org/namespaces/inkscape"
   xmlns:sodipodi="http://sodipodi.sourceforge.net/DTD/sodipodi-0.dtd"
   xmlns="http://www.w3.org/2000/svg"
   xmlns:svg="http://www.w3.org/2000/svg">
  <defs
     id="defs18" />
  <sodipodi:namedview
     id="namedview18"
     pagecolor="#ffffff"
     bordercolor="#000000"
     borderopacity="0.25"
     inkscape:showpageshadow="2"
     inkscape:pageopacity="0.0"
     inkscape:pagecheckerboard="0"
     inkscape:deskcolor="#d1d1d1"
     inkscape:document-units="pt" />
  <g
     id="Layer1000">
    <g
       id="Layer1001">
      <path
         d="m 319.9945,264.2113 c 2.8831,0.0258 2.7227,-1.2642 2.7955,-4.8413 0.0397,-1.9638 0.2523,-4.7347 -0.6732,-6.3229 l -2.1059,0.006 c -1.0337,3.1433 -0.9646,8.032 -0.0164,11.1577 z"
         style="fill:#090707;fill-rule:evenodd"
         id="path1" />
      <path
         d="m 456.7245,252.9941 c -2.3556,0.4711 -1.9188,3.1586 -1.9114,5.1199 0.006,1.743 -0.1267,4.3869 0.7166,5.9222 2.0248,0.2361 2.4185,0.0518 2.5546,-1.368 0.2162,-2.2553 0.8053,-8.6644 -1.3598,-9.6741 z"
         style="fill:#090707;fill-rule:evenodd"
         id="path2" />
    </g>
    <g
       id="Layer1002">
      <path
         d="m 390.6659,182.6657 c 3.0929,0.013 13.472,-0.2912 15.7028,0.1728 l 0.0221,11.335 -15.6237,0.1301 z m -19.1633,0.0677 15.9984,-0.0281 -10e-4,11.4531 -15.789,0.1285 z m 0.0419,-12.873 c 1.3573,-0.377 2.958,-1.599 4.2199,-2.4304 1.3028,-0.8584 2.3936,-1.5143 3.8968,-2.4715 1.442,-0.9187 6.4718,-4.3677 7.8305,-4.6823 l -0.0204,19.637 c -1.6722,0.4073 -12.3781,0.2132 -15.9968,0.2004 z m 33.3802,-0.6806 c 1.4488,0.8592 1.499,0.9709 1.4962,2.7723 -0.004,2.6595 -0.053,5.3005 -0.0831,7.9583 -1.8422,0.5159 -12.9557,0.2315 -15.6268,0.1936 l -0.2109,-19.726 c 1.5327,0.617 11.6104,7.1328 14.4246,8.8018 z m -36.6876,3.5371 c -6e-4,2.6597 -0.4573,23.1877 0.4535,23.9 0.6772,0.5295 29.6683,0.2336 34.2859,0.2331 7.7885,-0.001 6.7048,0.4645 6.6929,-2.5325 l 0.0303,-23.6098 c 3e-4,-2.1529 -1.1925,-2.6133 -4.2537,-4.4484 -2.2014,-1.3201 -15.0389,-9.7835 -16.8661,-10.1937 -2.5422,1.1724 -13.8325,8.9371 -17.1975,10.9386 -3.4246,2.037 -3.1422,1.4542 -3.1453,5.7127 z"
         style="fill:#040303;fill-rule:evenodd"
         id="path3" />
      <path
         d="m 402.1559,434.6844 c 0.003,-0.8238 -0.0944,-2.0138 -0.0315,-2.7791 0.1123,-1.3573 0.2225,-1.0163 2.0982,-0.9822 2.0786,0.0376 4.6415,-0.0244 6.5858,0.3566 8.6777,1.7013 9.3177,9.8467 5.0366,13.7551 -3.5009,3.1955 -8.1497,2.8496 -13.7288,2.6365 z m -3.845,15.4649 c 5.3357,0.2699 12.7857,0.3887 17.2117,-1.3549 3.9413,-1.5529 7.0251,-4.938 6.8752,-9.5913 -0.3521,-10.946 -13.5587,-11.0815 -24.086,-10.6084 z"
         style="fill:#040303;fill-rule:evenodd"
         id="path4" />
      <path
         d="m 352.9858,428.6037 c -0.4765,2.401 -0.2296,12.4549 0.1472,15.1011 1.3532,9.5051 21.0018,8.9127 21.7754,-0.1378 0.1871,-2.1892 0.4011,-13.392 -0.0884,-15.0341 l -3.7384,0.1483 c 0.1466,4.0773 0.1279,8.4514 0.0244,12.5339 -0.0941,3.7089 -1.4411,7.2091 -7.4903,6.8893 -5.1641,-0.2732 -6.8465,-3.0645 -6.8836,-7.1354 -0.0202,-2.2447 0.3708,-10.9493 -0.2914,-12.4202 z"
         style="fill:#040303;fill-rule:evenodd"
         id="path5" />
      <path
         d="m 276.4949,446.4892 c 2.2623,4.7656 15.789,6.0866 18.4113,-0.1837 3.4311,-8.2034 -11.3009,-8.274 -13.2846,-11.3076 -2.2719,-3.4739 5.5857,-6.5821 10.2727,-2.3315 1.2507,-0.4606 2.238,-1.1515 2.6556,-2.3278 -4.4487,-1.889 -9.0785,-3.4648 -14.3144,-0.5893 -2.8273,1.5527 -5.2949,6.4233 1.639,9.3381 2.5407,1.0681 12.0812,2.505 8.9685,7.2652 -0.8969,1.3714 -4.3971,2.3077 -6.937,1.6934 -3.0016,-0.7259 -3.5866,-2.2909 -5.3812,-3.014 -0.9108,0.2497 -1.4899,0.8064 -2.0299,1.4572 z"
         style="fill:#040303;fill-rule:evenodd"
         id="path6" />
      <path
         d="m 311.8696,431.1654 8.8738,0.0505 0.0258,19.0205 3.7905,-0.0717 0.0859,-18.9831 8.9711,-0.0134 0.0592,-2.5815 -21.7088,-0.0402 z"
         style="fill:#040303;fill-rule:evenodd"
         id="path7" />
      <path
         d="m 444.1024,428.5811 c -0.4434,1.027 -0.4128,19.7048 -0.0916,21.6082 l 3.7477,0.0187 -0.1599,-21.6791 z"
         style="fill:#040303;fill-rule:evenodd"
         id="path8" />
    </g>
    <g
       id="Layer1003">
      <path
         d="m 356.0764,411.1656 c -0.3708,-1.1228 -0.6406,-0.9213 -2.1316,-1.5253 -3.5334,-1.4315 -3.513,-3.3786 -3.6627,-6.13 -0.1859,-3.4154 -0.392,-8.7162 -0.0521,-12.037 1.3648,-0.7257 2.6045,-1.8533 4.7576,-2.3426 1.6245,0.8504 3.5167,2.4515 4.6108,3.5059 6.1073,5.8867 11.971,10.7972 18.5999,16.2828 0.7659,0.6338 1.2245,0.8972 2.3091,1.4542 2.2166,1.1384 13.1811,1.3702 15.3581,0.4943 -0.411,-0.8951 -1.0619,-0.8458 -2.3871,-1.362 -5.3736,-2.0937 -13.784,-10.3708 -18.3515,-14.491 L 364.2717,384.451 c 0.6627,-0.6284 2.7447,-1.6696 3.6207,-2.1798 5.2702,-3.0694 12.274,-8.5816 17.4367,-10.4235 1.9264,-0.6872 7.5963,-1.6609 8.3449,-3.0864 l -20.2362,0.047 c 0.339,0.4133 0.6712,0.6585 1.4264,1.3012 0.4924,0.4192 0.9269,0.8727 0.6706,1.6066 -0.5357,1.5347 -7.8154,6.8403 -9.4756,8.1173 -3.261,2.5086 -9.5618,5.569 -13.6426,7.3891 -0.6667,0.2973 -1.3334,0.7293 -1.9735,0.4393 -0.6491,-1.94 -0.2123,-37.2736 -0.0816,-42.0386 -2.8159,0.2117 -16.9132,2.2507 -18.1406,3.1621 0.3813,0.3625 -0.4258,0.0496 0.7498,0.7089 1.1817,0.6627 4.2746,0.8464 5.6012,3.664 0.7138,1.516 0.5514,6.4619 0.5749,8.4354 0.0714,6.0273 0.0737,12.0577 0.07,18.085 -0.002,2.9651 0.3141,24.8851 -0.6718,26.7622 -0.6761,1.2875 -1.5664,1.7232 -2.615,2.4854 -1.9269,1.4003 -2.5265,0.8768 -3.0824,2.247 3.61,0.3702 19.6702,0.3822 23.2288,-0.008 z"
         style="fill:#020102;fill-rule:evenodd"
         id="path9" />
      <path
         d="m 475.8042,390.4789 c -0.005,3.2105 0.8801,15.2521 -1.4652,17.5927 -0.4456,0.445 -1.4605,1.1919 -2.1683,1.5726 -0.7098,0.3819 -1.6491,0.6293 -2.2124,1.1792 1.4877,0.8079 9.6684,0.4729 12.0405,0.4822 2.6311,0.0102 10.6007,0.5423 12.1453,-0.4822 -2.3698,-1.8246 -7.3871,-1.7991 -7.3639,-7.2751 0.0185,-4.3563 0.0621,-8.7108 0.0661,-13.0694 0.002,-2.5773 -0.7759,-10.4009 1.1682,-12.0999 2.268,-1.9821 5.0306,-4.3254 10.3005,-4.6962 5.8062,-0.4085 9.4289,1.0423 11.9514,3.6451 2.9866,3.0821 3.0215,6.0068 3.0401,10.3881 0.009,2.1484 0.215,17.8906 -0.2284,19.3436 -0.8827,2.8908 -1.4366,2.2008 -3.1865,3.7811 1.7788,0.6815 17.5757,0.6421 20.1518,0.2906 -0.5578,-1.4315 -2.1203,-1.1058 -4.0708,-2.4313 -3.039,-2.065 -2.2212,-10.7277 -2.2283,-14.2024 -0.0122,-6.0741 1.0026,-14.834 -2.2343,-19.7246 -3.297,-4.9819 -8.8744,-7.6366 -18.3957,-7.0847 -3.9642,0.23 -7.3967,1.6932 -9.5803,3.2171 -1.0992,0.7674 -5.9862,4.989 -6.8147,5.3031 l -0.0527,-8.7701 c -2.0781,0.0135 -16.4325,2.3107 -17.4397,2.9471 0.6585,1.3589 1.7235,0.5528 4.751,2.7799 1.6889,1.2428 1.8473,2.4095 1.8586,4.7498 0.0196,4.1831 -0.0258,8.3789 -0.0323,12.5637 z"
         style="fill:#020102;fill-rule:evenodd"
         id="path10" />
      <path
         d="m 550.4361,385.713 c -0.3185,-5.4204 2.7605,-10.5599 7.3781,-13.826 1.4369,-1.0165 3.6008,-1.5134 6.0777,-1.5503 9.963,-0.1479 13.6415,7.502 13.2923,15.2604 -2.7086,0.4935 -23.0162,0.3212 -26.7481,0.1159 z m 30.1003,3.3112 c 7.943,-0.0244 7.4146,0.7685 7.4251,-3.0663 0.0329,-11.9415 -8.6927,-19.5375 -24.8148,-18.4648 -12.8171,0.8529 -21.7332,8.8636 -23.1976,18.9912 -1.7628,12.1944 4.0615,21.2324 15.2249,24.6419 15.4557,4.7205 31.3781,-3.0204 32.1582,-9.1029 -2.8304,0.6406 -4.7336,2.7794 -11.0948,4.1828 -8.4515,1.8644 -18.5023,-1.277 -22.6619,-7.1269 -1.4586,-2.0517 -3.6629,-6.9925 -3.2201,-10.0063 z"
         style="fill:#020102;fill-rule:evenodd"
         id="path11" />
      <path
         d="m 436.4406,370.3855 c 3.7253,3.0592 7.0336,1.088 7.0798,7.2757 l -0.0207,25.386 c -0.2182,6.3978 -2.6231,5.0298 -5.881,7.7762 1.1815,0.7303 21.009,0.7424 22.4822,0 -1.3576,-1.957 -5.4383,0.1429 -5.5333,-7.5271 -0.1485,-11.9636 0.1862,-24.1546 -0.0564,-35.9977 -2.8426,0.2486 -6.3388,0.9533 -9.2362,1.4128 -1.311,0.2078 -7.7765,1.0823 -8.8344,1.6741 z"
         style="fill:#020102;fill-rule:evenodd"
         id="path12" />
      <path
         d="m 441.5506,355.5669 c 1.933,6.1205 15.8494,4.9385 13.5366,-3.2279 -1.834,-6.4757 -15.9999,-4.5734 -13.5366,3.2279 z"
         style="fill:#020102;fill-rule:evenodd"
         id="path13" />
    </g>
    <g
       id="Layer1004">
      <path
         d="m 278.3057,330.1673 c 0.7063,-3.6796 3.238,-10.0239 4.7389,-13.8016 l 211.9243,-0.0309 4.6628,13.93 c -8.0487,0.4859 -19.0568,-0.4173 -27.5508,-0.453 -27.7069,-0.1165 -55.3459,-0.5675 -83.1809,-0.5505 -27.9789,0.0173 -55.6215,0.4924 -83.5014,0.5678 -4.3126,0.0119 -24.9018,0.8547 -27.0929,0.3382 z m 226.1573,-1.1818 c -0.3866,1.0695 -0.4504,1.1036 -1.0292,1.3728 -1.063,-0.6701 -1.2311,-2.3966 -1.5344,-3.4599 -0.7515,-2.6357 -3.0901,-8.7475 -3.3214,-10.5758 l 9.1562,0.0552 c -0.0799,1.8355 -1.2345,5.3771 -1.7546,7.2942 z m -229.1351,-0.059 c -0.4233,1.1215 -0.0667,0.9171 -0.9622,1.4293 -1.0612,-0.5437 -0.219,0.2072 -0.7794,-0.8521 l -1.8414,-6.0304 c -0.5786,-1.9843 -1.696,-5.2073 -1.9559,-7.1195 l 9.8636,-0.0354 z m 101.0948,-23.7906 c 5.9119,0.0193 7.8511,-0.0646 11.8372,-2.3026 1.648,0.5166 2.6342,1.3851 5.1292,1.9787 4.0343,0.9597 58.4241,-0.216 64.2952,-0.2552 7.2473,-0.0482 49.3968,-0.8498 51.4213,-0.4138 0.0233,2.2153 0.2687,8.0991 -0.297,9.6596 -59.8371,-0.2288 -120.1346,0.0176 -180.055,-0.0576 -17.7415,-0.022 -42.4171,0.3714 -59.9173,-0.1179 l -0.118,-9.6102 c 36.1792,-0.0185 71.6993,1.0008 107.7044,1.119 z m 136.0746,-10.1004 c 8e-4,-6.1956 0.0181,-12.3908 0.009,-18.5864 -0.007,-4.7948 -0.9717,-13.7166 1.629,-17.4586 2.9767,-4.2829 11.2275,-4.7296 16.1116,-1.3281 4.3642,3.0393 2.9656,11.1107 2.9571,16.526 -0.01,6.1954 -0.0164,12.3914 -0.01,18.5865 0.0111,10.2104 2.7238,20.2439 -9.0978,20.8961 -3.0917,0.1707 -8.5417,0.2813 -11.5719,0.0942 z M 265.5625,313.762 c -7.8919,0.1194 -16.6329,0.9684 -19.7646,-3.5908 -2.2266,-3.2415 -1.4088,-13.0675 -1.4042,-17.3963 0.006,-6.1954 -0.008,-12.3908 -0.003,-18.5865 0.004,-5.6375 -1.0978,-12.9934 2.9517,-16.1926 5.2092,-4.1162 12.6479,-2.5415 16.0591,1.4454 3.32,3.8803 2.0753,11.8091 2.0761,17.0079 0.002,12.3922 -0.2398,24.9397 0.0848,37.3129 z m 163.3858,-32.2259 c 4.3373,-0.125 8.5593,-0.4757 13.0596,-0.5522 4.3715,-0.0745 8.7397,-0.1343 13.1076,-0.2463 8.773,-0.2248 17.7441,-0.4476 26.5162,-0.2211 8.725,0.2251 16.1507,0.4671 22.0824,3.9952 1.8102,1.0766 5.2634,3.7312 5.3957,6.2484 0.1696,3.226 0.1727,7.2507 -0.0408,10.4694 -3.1251,0.5415 -46.2393,0.6767 -51.0646,0.7968 -6.4676,0.1613 -59.8783,1.2116 -64.1949,0.2231 -4.259,-0.9751 -3.4143,-2.9743 -3.4798,-7.4557 -0.055,-3.7437 -0.6035,-6.0859 2.1881,-8.467 6.152,-5.247 30.3366,-5.0165 32.4598,-4.0453 7.2088,3.2972 3.4217,11.8675 3.8336,16.2467 4.7931,-0.5451 4.5479,-9.8527 2.7841,-13.4068 -1.4808,-2.9843 -2.3258,-2.4329 -2.647,-3.5852 z m -160.2167,19.6923 c -0.1964,-2.4236 -0.3262,-8.3761 0.0119,-10.6716 0.3317,-2.2501 3.9569,-4.9331 5.645,-6.0545 4.9892,-3.3135 13.9756,-3.8469 21.7309,-4.0116 6.0911,-0.1293 49.8725,0.1979 52.1952,1.2328 l -1.7833,1.6492 c -1.5261,1.8578 -2.135,4.3319 -2.2774,6.6348 -0.1161,1.8773 -0.002,3.5373 0.4853,5.2826 0.4865,1.7419 0.8564,3.1238 2.9799,3.5898 0.0994,-4.5782 -1.8171,-14.3533 4.6737,-16.6717 2.9736,-1.0622 20.6478,0.1848 24.3669,0.775 9.8555,1.5647 10.4091,5.6837 10.4182,12.3035 0.011,8.2426 -4.1377,7.3899 -16.8338,7.2816 -8.5366,-0.0728 -17.0488,-0.134 -25.5944,-0.1774 -8.4914,-0.0434 -16.8349,-0.3989 -25.2742,-0.4794 l -38.1648,-0.4614 c -2.9294,-0.0366 -10.1855,0.1751 -12.5791,-0.2217 z m 225.4808,-22.7699 c -0.4003,-3.816 1.0783,-13.4438 2.5186,-16.8154 1.2163,-2.8471 2.1348,-4.3594 5.2262,-5.4507 2.7417,-0.9678 7.4276,-1.1041 10.677,-0.792 -1.0556,3.8041 -3.5195,2.1569 -3.5178,13.2625 6e-4,5.3521 0.0777,10.7265 -0.0301,16.0761 -0.8963,-0.1253 -2.3039,-1.3618 -3.0965,-2.0058 -3.5309,-2.8704 -10.1738,-3.3897 -11.7774,-4.2747 z m -225.4598,6.2048 c -0.2965,-5.4252 -0.0215,-11.2813 -0.0207,-16.7539 0.002,-9.7767 -3.6992,-10.0823 -5.2095,-12.522 9.7294,-0.2297 14.4522,-1.1827 17.4127,5.8662 2.0137,4.7943 2.8564,11.9027 3.0191,17.261 -3.3071,0.9327 -5.5258,1.0588 -8.5903,2.4934 -1.2566,0.5885 -2.2122,1.1787 -3.4175,1.8329 -2.444,1.3274 -1.6636,1.798 -3.1938,1.8224 z m 122.1747,-24.2929 c 0.0859,-2.4735 0.3072,-4.8325 0.4768,-7.278 0.1403,-2.0222 0.008,-5.3926 0.4881,-7.1991 2.2527,-0.6058 25.4435,-0.2611 29.9602,-0.2568 8.5714,0.008 71.5671,-0.2651 74.9931,0.0833 4.21,0.428 6.1234,3.3494 5.8099,7.062 -1.3363,2.3629 -10.832,-1.8522 -11.8281,25.3541 -1.6056,0.2974 -11.2822,-0.3333 -13.9474,-0.3489 -13.1515,-0.0768 -28.3042,0.3373 -41.3832,0.8368 -9.533,0.3642 -30.172,0.2775 -38.6966,2.7771 -3.4685,1.0171 -5.9326,2.4945 -7.8934,4.8328 -0.9379,-0.5355 -1.0159,-0.9845 -1.7674,-1.6274 -7.2918,-6.2393 -21.4733,-4.9258 -31.8419,-5.4312 -4.4903,-0.2188 -8.9353,-0.3161 -13.435,-0.5 -9.1097,-0.3722 -18.3688,-0.4833 -27.4907,-0.6908 -4.5635,-0.1038 -9.1874,-0.1707 -13.7719,-0.1811 -2.387,-0.005 -12.0698,0.5303 -13.2885,0.2973 -1.3864,-9.0379 -0.3716,-22.2239 -12.3236,-25.2119 -0.1429,-3.6595 2.2909,-6.7408 6.4066,-7.1087 4.375,-0.3909 38.7145,-0.1443 44.7999,-0.1497 5.6973,-0.005 55.419,-0.2395 59.8464,0.1693 1.2839,5.7376 0.9972,18.2406 1.9089,25.6163 0.2605,2.1093 -0.1174,2.5373 0.9505,3.1405 1.57,-0.9785 1.9763,-12.7207 2.0273,-14.1859 z m -0.2869,-51.5633 22.0538,-0.1103 -0.1485,34.3052 -21.8537,0.0246 z m -25.4426,0.0657 c 3.2085,-0.0751 20.4859,-0.3673 22.3131,0.0468 l -0.0703,34.0905 -22.3701,0.0366 z m 171.8481,26.3897 c 0.6735,-2.8063 3.6822,-5.3263 5.5956,-6.6509 2.334,-1.6155 5.612,-2.8948 9.3977,-3.4404 6.9939,-1.0077 18.4586,0.2681 23.3569,3.0537 -0.4445,1.9999 -4.335,5.3315 -6.2567,6.8755 -6.3501,5.1029 -18.1939,8.8035 -26.9081,5.3776 -1.8859,-0.7413 -2.8803,-1.6832 -4.2962,-2.3429 1.0757,-1.9916 6.469,-2.9191 9.4521,-3.526 2.8018,-0.57 9.4737,-0.6619 10.1563,-2.8346 -4.3396,-0.1919 -7.6306,-0.26 -11.7627,0.5584 -5.7634,1.1412 -6.1117,2.1078 -8.7349,2.9296 z m -27.9941,-3.8477 c -2.5952,-0.0262 -5.9856,-3.7585 -7.0455,-5.8553 -3.9484,-7.812 -0.2129,-17.9977 7.0341,-23.8294 0.7818,-0.629 0.987,-0.7855 1.6342,-1.4227 4.2097,0.8158 9.1318,10.0323 9.5411,14.6613 0.3036,3.4308 -0.1335,6.6396 -1.7886,9.4479 -1.0429,1.7694 -3.7987,5.5672 -6.268,6.2413 0.2101,-4.2667 0.9233,-14.0428 -1.4675,-17.4127 -2.5594,2.3222 -1.6022,13.4952 -1.6398,18.1696 z M 309.1914,200.0942 c 3e-4,-1.4613 -0.4,-6.9732 0.2228,-7.8749 0.9499,-1.3763 13.3529,-9.4808 15.8063,-11.4764 1.7778,-1.446 3.2754,-2.3238 5.2475,-3.9155 l 8.0265,-5.7541 c 0.6545,-0.4985 1.9461,-1.3237 2.7593,-1.8518 3.0761,-1.997 4.5507,-3.5538 7.8389,-5.6534 1.0783,-0.6886 1.6917,-1.2192 2.6708,-1.9179 l 23.9921,-17.0884 c 1.0591,-0.705 1.3675,-1.0664 2.4007,-1.8774 0.9391,-0.737 1.5605,-0.9499 2.7386,-1.8695 l 8.0051,-5.5411 5.3463,3.6105 c 0.4522,0.3569 0.7183,0.6871 1.1954,1.0598 0.4488,0.3507 0.8966,0.5979 1.4009,0.9205 0.9136,0.5842 1.6004,1.2143 2.5257,1.7784 1.2903,0.7869 1.4972,1.1512 2.6124,1.9673 0.9108,0.6666 1.6605,1.0343 2.6092,1.7231 l 38.8452,27.5196 c 0.8336,0.6693 1.6611,1.1121 2.5529,1.7669 l 10.2804,7.2459 c 1.7447,1.1956 3.306,2.5702 5.1837,3.7208 1.0372,0.6354 1.698,1.2718 2.6847,1.9088 5.9366,3.8307 5.1738,3.4605 5.1733,7.329 l -10e-4,15.3212 c 10e-4,7.8152 0.3716,24.6365 -0.1162,31.8767 l -53.301,-0.1057 c -0.0439,-12.1929 0.205,-24.3978 -0.1721,-36.587 -14.2559,-0.317 -32.4391,-0.0723 -46.6548,-0.0851 -7.3486,-0.006 -7.204,-0.5454 -7.2326,1.8695 l 0.0303,34.8811 -52.7122,0.0457 z m 230.2118,7.42 c -2.9015,-3.0671 -3.0677,-10.7386 -1.7643,-14.717 4.2489,-12.9702 23.3969,-19.919 40.4022,-19.6205 1.351,13.2786 -2.596,27.8804 -18.2291,33.5058 -2.4653,0.8869 -19.7073,4.9181 -16.7278,1.2234 2.4171,-2.9971 3.6409,-3.6456 7.9634,-5.3509 1.7589,-0.694 3.6969,-1.4752 5.4377,-2.2539 1.8272,-0.8178 4.1479,-1.5514 4.2293,-3.2062 -5.0488,0.2854 -8.3596,2.7105 -11.1133,3.3343 0.4536,-1.0249 2.9067,-3.5163 3.7639,-4.3353 1.425,-1.3612 2.7357,-2.281 4.0487,-3.6031 2.5027,-2.52 5.9361,-4.0745 7.1294,-8.2323 -4.2335,1.4737 -8.056,5.6247 -10.875,7.802 -1.1861,0.9159 -1.9755,2.0183 -3.011,2.9117 -4.1049,3.542 -8.631,10.1966 -11.2541,12.542 z M 292.3686,196.0653 c 0.8226,-1.8907 9.3062,-7.0597 11.7199,-9.0547 l 24.1911,-17.4322 c 3.4917,-2.8755 8.3293,-5.5678 11.9639,-8.686 l 33.2836,-23.858 c 1.0941,-0.9261 2.0273,-1.2634 3.0616,-2.1155 2.0702,-1.7048 10.5501,-7.3987 11.8415,-8.7222 1.474,0.2489 2.8837,1.7294 5.0939,3.2065 0.591,0.3952 0.9261,0.7019 1.5071,1.0738 l 12.212,8.7503 c 1.1018,0.7341 1.8439,1.4482 3.0109,2.1554 l 6.2442,4.3903 c 1.1994,0.7526 1.9891,1.4193 3.0441,2.1351 2.0169,1.3682 3.9379,2.8647 6.1138,4.2426 3.2139,2.0355 8.4697,6.2246 12.227,8.727 l 48.5957,34.9467 c -0.6327,0.9258 -1.9397,2.1387 -2.8805,2.8349 l -9.2407,-6.3839 c -1.0846,-0.6846 -1.7258,-1.3535 -2.835,-2.039 l -38.2748,-27.216 c -1.0437,-0.8189 -1.9831,-1.2668 -3.088,-2.1013 -0.682,-0.5148 -0.8869,-0.5842 -1.5673,-1.029 -0.5907,-0.3861 -0.9365,-0.7319 -1.4573,-1.1123 -5.1531,-3.7638 -10.334,-7.0637 -16.1733,-11.4145 l -4.4572,-3.0348 c -1.1742,-0.8124 -1.6923,-1.376 -2.8565,-2.2731 -0.9771,-0.7532 -1.8794,-1.1665 -2.9284,-1.9746 L 388.9,131.8135 295.29,198.7061 c -0.8527,-1.0491 -2.0506,-1.7419 -2.9214,-2.6408 z m 247.4742,15.281 c 2.7349,0.003 4.7963,0.6285 7.9875,0.4595 10.9791,-0.5814 21.0796,-4.9274 26.8135,-12.0594 2.0925,-2.6022 3.9841,-5.9372 5.0867,-9.3181 1.2453,-3.818 1.9163,-7.821 1.948,-11.9344 0.0164,-2.1889 -0.2882,-4.3367 -0.6267,-6.4831 -0.4113,-2.6093 -2.1025,-1.7963 -5.5877,-1.4471 -10.9497,1.0967 -17.6261,2.1028 -25.929,6.198 -6.2153,3.0656 -12.3064,7.9242 -14.929,14.8824 -1.9797,5.252 -1.7875,12.1343 1.7161,17.051 1.3079,1.8354 0.1383,2.7292 -1.037,4.5941 -3.8227,6.0653 -7.1412,11.9151 -10.8662,18.0876 -1.819,3.0144 -3.462,6.1602 -5.2444,9.2024 -0.8839,1.5086 -4.0881,8.6278 -4.8141,9.1664 -1.7745,-2.2261 -2.2618,-12.6171 -1.7538,-15.8324 0.0587,-0.1046 5.3274,-2.5356 8.3701,-7.4803 4.1471,-6.7397 2.924,-16.1691 -1.9789,-22.4842 -1.4065,-1.8119 -5.911,-7.8148 -8.9688,-6.2305 -2.3462,1.2158 -6.5001,5.148 -8.3015,7.5611 -4.6304,6.2028 -6.4837,16.1694 -1.9477,22.809 3.4538,5.0559 6.7586,5.0057 9.2254,6.5469 0.1868,3.5671 -0.0757,6.5483 0.5885,10.1384 0.2775,1.501 0.6848,2.8565 1.2673,4.2525 0.4666,1.1189 1.6458,2.6861 1.4908,3.8237 l -6.6634,-0.0295 c -0.5729,-3.2944 0.0952,-4.7307 -2.2992,-7.2301 -1.486,-1.5513 -4.4028,-2.4043 -7.9427,-2.523 -7.45,-0.2501 -15.2478,-0.002 -22.8189,-0.0375 l -0.0995,-48.2471 c 1.6242,0.3943 1.5268,1.0548 2.9413,1.893 1.0385,0.6157 1.6015,1.1123 2.6002,1.7275 1.9165,1.1809 2.9681,2.4678 5.2086,3.4307 2.1495,-0.7395 5.1611,-3.5609 6.6121,-4.8481 1.5523,-1.3768 0.9014,-1.7399 -0.5298,-2.9219 -2.1765,-1.7978 -4.4283,-2.9214 -6.6194,-4.6021 -0.6058,-0.4646 -0.8896,-0.8586 -1.5126,-1.3139 l -5.2197,-3.4477 c -1.2544,-0.9842 -1.5636,-1.5177 -2.9926,-2.4135 -5.299,-3.3213 -12.761,-9.4461 -16.6872,-11.7671 -1.2079,-0.7143 -2.3103,-1.6104 -3.3951,-2.3633 -1.0772,-0.7481 -2.1555,-1.7512 -3.2799,-2.4423 l -6.5025,-4.6888 c -2.2844,-1.7291 -4.5555,-2.9506 -6.7061,-4.7869 -1.2842,-1.0961 -3.5167,-2.2283 -5.0239,-3.3443 -0.6029,-0.4467 -0.9553,-0.8583 -1.5389,-1.2977 -1.194,-0.8994 -2.0838,-1.3745 -3.4056,-2.3473 -0.6307,-0.4646 -1.11,-0.6684 -1.7657,-1.1314 l -31.1896,-22.2298 c -2.3091,-2.1345 -4.2812,-3.869 -7.3854,-1.5491 -0.6383,0.477 -0.8492,0.8492 -1.5029,1.3246 l -6.6498,4.5811 c -0.6636,0.4713 -0.8776,0.7965 -1.5115,1.3172 l -85.5711,61.6689 c -1.199,0.911 -2.2342,1.2574 -3.2255,2.3428 0.7285,0.8748 7.014,5.7566 8.1252,6.2039 3.7333,-1.0647 6.4928,-5.5706 10.0548,-6.965 l -0.1463,48.187 c -7.5676,-0.006 -15.5049,-0.1332 -23.0394,0.0935 -5.3138,0.1599 -8.5153,2.1555 -10.0021,5.6373 -0.7526,1.7618 0.3438,3.8679 -2.4528,3.9852 -0.68,0.0287 -1.5414,0.004 -2.2456,0.0114 -5.423,0.055 -15.2212,-0.2396 -19.7156,1.4732 -1.8697,0.7126 -3.6226,1.934 -4.6023,3.1577 -2.7719,3.462 -2.4931,6.8913 -2.5035,11.5566 -0.01,4.4371 0.017,8.8747 0.0227,13.3118 0.006,4.5209 -0.005,9.0422 -0.0111,13.5632 -0.0113,7.8179 -2.5327,17.1023 8.9708,20.0265 4.1593,1.0573 13.3161,-0.2387 16.0433,0.7239 0.79,1.0407 4.1626,12.5105 3.8979,13.7852 -7.5841,0.4731 -16.4574,0.4178 -24.1793,0.563 -2.8289,0.053 -19.8019,0.2931 -22.6979,0.6074 -1.1259,0.1222 -0.2503,-0.1009 -0.9334,0.2109 2.7746,1.052 73.0591,1.6813 82.4757,1.8187 34.115,0.4978 246.2072,0.523 251.4243,-1.8187 -1.7515,-0.6652 -42.3206,-0.8404 -48.8333,-1.3839 l 3.9668,-14.0345 c 10.48,0.0963 20.2652,1.1179 24.0577,-5.7286 1.9352,-3.494 1.0681,-18.8799 1.0378,-23.8119 -0.0471,-7.7017 0.6298,-17.1036 -0.139,-24.578 -1.1568,-11.2436 -17.0821,-8.6803 -19.4403,-9.3297 -0.0195,-1.5701 1.7278,-3.7724 2.3766,-5.2106 1.3351,-2.96 1.2742,-1.8636 4.7387,-3.0754 2.0129,-0.7041 3.7791,-1.5414 5.7056,-2.2952 1.73,-0.6766 4.1601,-2.067 5.4751,-2.425 2.9942,1.9791 6.664,4.0839 12.4684,4.4112 9.5276,0.5375 19.6873,-3.1101 25.1862,-8.5597 1.5582,-1.5443 6.8173,-6.1475 6.7603,-8.7154 -2.3403,-1.9063 -8.7199,-3.4251 -12.6819,-4.0468 -9.074,-1.4238 -21.606,-0.6752 -28.0568,4.9184 -2.6092,2.2627 -5.034,5.5143 -5.2557,9.7679 -2.2064,0.8847 -9.5357,4.6503 -11.9009,5.025 0.8682,-3.7695 15.4779,-25.5623 18.2165,-31.2874 z"
         style="fill:#030203;fill-rule:evenodd"
         id="path14" />
      <path
         d="m 219.135,386.8724 c 0.106,-0.6534 12.7383,-24.6804 13.6403,-25.2241 0.784,0.7835 12.9663,24.4242 13.0034,25.2201 z m -3.2944,24.2022 c -0.296,-1.796 -3.7256,-1.4942 -5.0077,-3.6354 -1.0494,-1.753 0.4428,-4.2894 1.1911,-5.8819 1.7172,-3.6542 3.6261,-7.3321 5.2639,-10.8692 9.5023,0.0102 21.456,-0.1681 30.7582,0.0967 1.8516,3.0016 4.015,7.3145 5.4434,10.5667 4.3341,9.8665 -1.2926,6.8694 -2.825,9.8441 10.2169,0.0709 15.038,0.1508 24.9658,-0.0983 -0.4762,-0.9479 -3.17,-1.9979 -4.2732,-2.6819 -3.2984,-2.0452 -6.3978,-8.572 -8.0459,-11.7782 l -22.238,-42.3148 c -3.043,-5.8132 -2.3854,-6.7011 -6.8185,-6.1248 l -26.354,49.8711 c -1.4119,2.6419 -3.0708,6.0596 -5.0392,7.8528 -3.6129,3.291 -7.3995,3.4744 -8.0631,5.0837 1.4834,0.4549 19.713,0.5209 21.0422,0.0694 z"
         style="fill:#030203;fill-rule:evenodd"
         id="path15" />
      <path
         d="m 403.8757,349.5863 c 7.1809,3.0348 6.5902,4.2251 6.6038,11.7573 0.0108,5.9164 0.5423,41.6679 -0.5374,44.8886 -1.2606,3.7595 -4.7214,2.8995 -5.071,4.8687 2.0934,0.3482 20.615,0.3745 22.3759,-0.0413 -0.6383,-1.7388 -4.7321,-1.3074 -5.5153,-4.7557 -0.5137,-2.2618 -0.4752,-22.8504 -0.453,-25.8715 0.019,-2.6232 0.4447,-32.9729 0.0484,-34.7454 -2.7376,0.3529 -17.219,2.31 -18.4971,3.3494 z"
         style="fill:#030203;fill-rule:evenodd"
         id="path16" />
      <path
         d="m 284.0027,370.1573 c 2.2876,1.9667 3.3469,1.1855 4.8929,2.6365 2.4693,2.3176 1.5191,13.6729 1.5307,17.6851 0.0105,3.6771 0.8252,15.3287 -1.5786,17.6434 -0.5547,0.5344 -1.3456,1.0786 -2.1855,1.5591 -0.7092,0.4059 -1.5832,0.5269 -1.9678,1.3736 1.4057,0.4564 21.5195,0.4788 23.2086,0.0389 -0.3965,-0.7671 -0.0694,-0.4241 -1.3056,-0.955 -1.8025,-0.7747 -3.0311,-1.0715 -4.3577,-2.361 -1.9029,-1.8496 -1.4615,-3.8166 -1.4717,-6.4987 -0.0196,-5.1069 -0.005,-10.2144 -0.0352,-15.3213 -0.0246,-4.132 -1.0531,-6.4723 7.5872,-9.5184 7.7593,-2.7355 12.0478,2.5699 14.2191,2.9256 l -0.1306,-11.3253 c -6.9165,-1.8765 -14.0919,1.5053 -18.1772,5.6977 -1.8116,1.8589 -2.4638,3.5374 -3.6315,3.8761 -0.5729,-0.9187 -0.2301,-8.4793 -0.2103,-10.194 z"
         style="fill:#030203;fill-rule:evenodd"
         id="path17" />
      <path
         d="m 482.2011,430.7399 c 6.5206,-0.7633 11.0432,2.8758 11.8143,7.3324 0.877,5.0707 -2.9206,9.1389 -8.056,10.0157 -10.378,1.7716 -15.0081,-8.7608 -10.2113,-14.0344 1.1846,-1.3022 3.5246,-2.9707 6.453,-3.3137 z m -12.1986,10.2237 c 0.3478,3.0127 3.0759,6.1371 5.0143,7.2386 6.6537,3.7814 15.5944,2.8777 20.0511,-1.7447 2.1838,-2.2652 3.2372,-5.1157 2.8287,-8.7279 -1.5182,-13.4302 -29.7474,-12.8304 -27.8941,3.234 z"
         style="fill:#030203;fill-rule:evenodd"
         id="path18" />
    </g>
  </g>
</svg>
